<svg xmlns="http://www.w3.org/2000/svg" viewBox="0 0 375 370" preserveAspectRatio="xMidYMid meet" class="css-1y5supu" id="dffagebd"><defs id="SvgjsDefs1076"/><g id="SvgjsG1077" featurekey="root" fill="#501277"/><g id="SvgjsG1078" featurekey="container1" fill="#f0fcdc" transform="matrix(6.6899999999999995,0,0,6.6899999999999995,20,20)"><circle cx="25" cy="25" r="25"/></g><g id="SvgjsG1079" featurekey="symbol1" fill="#501277" transform="matrix(0.6818666098444491,0,0,0.6818666098444491,116.72312486682293,73.29357553803537)"><path fill="#501277" d="M138.4785156,18.6347656c-11.0634766,0-21.0146484,4.7338867-27.9433594,12.2880859l10.7109375,15.1899414  H29.7373047l24.5576172,119.3862305h75.8310547l16.3945313-83.5263672l6.7119141,9.5185547  c13.6152344-5.7612305,23.1611328-19.230957,23.1611328-34.9365234  C176.3935547,35.6108398,159.4199219,18.6347656,138.4785156,18.6347656z M74.8139648,110.5273438  c-2.3793945,0-4.3095703-1.9296875-4.3095703-4.3095703s1.9301758-4.3095703,4.3095703-4.3095703  c2.3798828,0,4.3100586,1.9296875,4.3100586,4.3095703S77.1938477,110.5273438,74.8139648,110.5273438z M82.6757813,146.546875  c-2.3793945,0-4.3095703-1.9296875-4.3095703-4.3095703c0-2.3818359,1.9301758-4.3115234,4.3095703-4.3115234  c2.3798828,0,4.3100586,1.9296875,4.3100586,4.3115234C86.9858398,144.6171875,85.0556641,146.546875,82.6757813,146.546875z   M98.1489258,127.0175781c-2.3793945,0-4.3095703-1.9296875-4.3095703-4.3095703  c0-2.3818359,1.9301758-4.3115234,4.3095703-4.3115234s4.3095703,1.9296875,4.3095703,4.3115234  C102.4584961,125.0878906,100.5283203,127.0175781,98.1489258,127.0175781z M50.7128906,92.7753906l-7.3051758-35.5180664h96.605957  l-6.9746094,35.5180664H50.7128906z"/></g><g id="SvgjsG1080" featurekey="text1" fill="#501277" transform="matrix(2.127218390057672,0,0,2.127218390057672,85.3378806319044,192.09561488506213)"><path d="M8.6719 11.914375 q-0.3125 -0.4296875 -0.6884765625 -0.6591796875 t-0.8252 -0.35156 t-0.89844 -0.12207 q-0.7421875 0 -1.298828125 0.1708984375 t-0.92285 0.46387 t-0.55176 0.68359 t-0.18555 0.82031 q0 0.64453125 0.2294921875 1.040039063 t0.58105 0.63477 t0.77637 0.37598 t0.81543 0.27344 l1.9727 0.64453 q0.888671875 0.283203125 1.567382813 0.64453125 t1.1377 0.85449 t0.69824 1.1377 t0.23926 1.4941 q0 0.91796875 -0.3759765625 1.69921875 t-1.0498 1.3574 t-1.6064 0.90332 t-2.0459 0.32715 q-1.142578125 0 -1.953125 -0.2587890625 t-1.3623 -0.69336 t-0.88379 -0.99121 t-0.51758 -1.1426 l-0.74219 0 l0 -1.6797 l2.4609 0 q0 1.083984375 0.2294921875 1.533203125 t0.63965 0.74707 t0.97656 0.44922 t1.25 0.15137 q0.6640625 0 1.196289063 -0.15625 t0.9082 -0.4541 t0.57617 -0.72266 t0.2002 -0.96191 q0 -0.595703125 -0.2490234375 -1.010742188 t-0.63965 -0.70801 t-0.85449 -0.47852 t-0.89355 -0.32227 l-2.1387 -0.60547 q-0.703125 -0.21484375 -1.284179688 -0.546875 t-0.99609 -0.81055 t-0.63965 -1.1182 t-0.22461 -1.4795 q0 -0.849609375 0.33203125 -1.591796875 t0.97656 -1.2988 t1.5771 -0.87402 t2.1338 -0.31738 q0.791015625 0 1.459960938 0.185546875 t1.2109 0.52246 t0.95703 0.81055 t0.69824 1.04 l0.73242 0 l0 1.6797 l-2.3926 0 q0 -0.859375 -0.3125 -1.2890625 z M21.97240625 22.304675 l1.2305 0 l-1.1719 -3.3594 l-5.6934 0 l-1.1426 3.3594 l1.5234 0 l0 1.6797 l-4.8047 0 l0 -1.6797 l1.2891 0 l4.6094 -13.125 l2.8809 0 l4.5996 13.125 l1.4844 0 l0 1.6797 l-4.8047 0 l0 -1.6797 z M16.89450625 17.324175 l4.5703 0 l-2.3047 -6.6211 z M38.232 11.367375 l-8.916 10.938 l6.9434 0 l0 -2.4609 l1.9141 0 l0 4.1406 l-10.801 0 l0 -2.2168 l8.7891 -10.898 l-6.709 0 l0 2.5 l-1.9141 0 l0 -4.1895 l10.693 0 l0 2.1875 z M40.12696875 9.179375 l10.605 0 l0 4.1895 l-2.002 0 l0 -2.5 l-5.2832 0 l0 4.7363 l4.4434 0 l0 1.6797 l-4.4434 0 l0 5.0195 l5.2832 0 l0 -2.5 l2.002 0 l0 4.1797 l-10.605 0 l0 -1.6797 l1.4063 0 l0 -11.436 l-1.4063 0 l0 -1.6895 z M52.6855625 9.179375 l6.1621 0 q0.986328125 0 1.821289063 0.2587890625 t1.4453 0.76172 t0.95215 1.2549 t0.3418 1.7285 q0 0.556640625 -0.2001953125 1.098632813 t-0.55664 1.0059 t-0.84473 0.8252 t-1.0645 0.55664 q0.244140625 0.107421875 0.4931640625 0.3076171875 t0.46875 0.48828 t0.40039 0.6543 t0.28809 0.78613 l0.82031 3.2227 l1.2793 0 l0.019531 1.8555 l-2.8809 0 l-1.1035 -4.502 q-0.302734375 -1.2109375 -0.9228515625 -1.782226563 t-1.6943 -0.57129 l-1.9043 0 l0 5.1758 l1.4844 0 l0 1.6797 l-4.8047 0 l0 -1.6797 l1.4063 0 l0 -11.436 l-1.4063 0 l0 -1.6895 z M56.0058625 10.869375 l0 4.6582 l2.8418 0 q0.556640625 0 1.020507813 -0.146484375 t0.80078 -0.43945 t0.52734 -0.72754 t0.19043 -1.0107 q0 -1.103515625 -0.6640625 -1.71875 t-2.1094 -0.61523 l-2.6074 0 z M75.68334375 22.304675 l1.2305 0 l-1.1719 -3.3594 l-5.6934 0 l-1.1426 3.3594 l1.5234 0 l0 1.6797 l-4.8047 0 l0 -1.6797 l1.2891 0 l4.6094 -13.125 l2.8809 0 l4.5996 13.125 l1.4844 0 l0 1.6797 l-4.8047 0 l0 -1.6797 z M70.60544375 17.324175 l4.5703 0 l-2.3047 -6.6211 z M92.4899375 13.086375 q-0.654296875 -1.11328125 -1.733398438 -1.748046875 t-2.4072 -0.63477 q-1.1328125 0 -2.0703125 0.478515625 t-1.6064 1.2842 t-1.04 1.8652 t-0.37109 2.2314 q0 1.38671875 0.41015625 2.456054688 t1.0693 1.7773 t1.5674 1.1816 t2.041 0.47363 q1.54296875 0 2.685546875 -0.7470703125 t1.9531 -2.4561 l1.7188 0.81055 q-0.37109375 1.0546875 -1.259765625 2.036132813 t-2.1924 1.582 t-2.8857 0.60059 q-1.513671875 0 -2.783203125 -0.5712890625 t-2.2607 -1.626 t-1.5137 -2.5 t-0.52246 -3.0176 q0 -1.58203125 0.5224609375 -2.98828125 t1.4648 -2.4463 t2.2461 -1.6406 t2.8271 -0.60059 q1.357421875 0 2.34375 0.3857421875 t1.6748 0.91797 t1.1865 1.1572 l1.0352 0 l0 1.7383 l-2.0996 0 z"/></g><g id="SvgjsG1081" featurekey="text2" fill="#501277" transform="matrix(2.611634475883739,0,0,2.611634475883739,84.9593781884168,230.79104429036607)"><path d="M8.6719 11.914375 q-0.3125 -0.4296875 -0.6884765625 -0.6591796875 t-0.8252 -0.35156 t-0.89844 -0.12207 q-0.7421875 0 -1.298828125 0.1708984375 t-0.92285 0.46387 t-0.55176 0.68359 t-0.18555 0.82031 q0 0.64453125 0.2294921875 1.040039063 t0.58105 0.63477 t0.77637 0.37598 t0.81543 0.27344 l1.9727 0.64453 q0.888671875 0.283203125 1.567382813 0.64453125 t1.1377 0.85449 t0.69824 1.1377 t0.23926 1.4941 q0 0.91796875 -0.3759765625 1.69921875 t-1.0498 1.3574 t-1.6064 0.90332 t-2.0459 0.32715 q-1.142578125 0 -1.953125 -0.2587890625 t-1.3623 -0.69336 t-0.88379 -0.99121 t-0.51758 -1.1426 l-0.74219 0 l0 -1.6797 l2.4609 0 q0 1.083984375 0.2294921875 1.533203125 t0.63965 0.74707 t0.97656 0.44922 t1.25 0.15137 q0.6640625 0 1.196289063 -0.15625 t0.9082 -0.4541 t0.57617 -0.72266 t0.2002 -0.96191 q0 -0.595703125 -0.2490234375 -1.010742188 t-0.63965 -0.70801 t-0.85449 -0.47852 t-0.89355 -0.32227 l-2.1387 -0.60547 q-0.703125 -0.21484375 -1.284179688 -0.546875 t-0.99609 -0.81055 t-0.63965 -1.1182 t-0.22461 -1.4795 q0 -0.849609375 0.33203125 -1.591796875 t0.97656 -1.2988 t1.5771 -0.87402 t2.1338 -0.31738 q0.791015625 0 1.459960938 0.185546875 t1.2109 0.52246 t0.95703 0.81055 t0.69824 1.04 l0.73242 0 l0 1.6797 l-2.3926 0 q0 -0.859375 -0.3125 -1.2890625 z M19.61910625 24.277345 q-1.533203125 0 -2.802734375 -0.5712890625 t-2.2656 -1.626 t-1.5137 -2.5 t-0.51758 -2.998 q0 -1.6015625 0.5224609375 -3.0078125 t1.4648 -2.4463 t2.2461 -1.6406 t2.8662 -0.60059 q1.572265625 0 2.880859375 0.6005859375 t2.2461 1.6406 t1.4551 2.4463 t0.51758 3.0078 t-0.52246 3.0029 t-1.4648 2.4463 t-2.2461 1.6455 t-2.8662 0.60059 z M19.61910625 22.460975 q1.162109375 0 2.104492188 -0.478515625 t1.6064 -1.2842 t1.0254 -1.8701 t0.36133 -2.2461 q0 -1.2109375 -0.3955078125 -2.338867188 t-1.1035 -1.9092 t-1.6455 -1.2061 t-1.9531 -0.4248 q-1.162109375 0 -2.109375 0.478515625 t-1.6113 1.2842 t-1.0254 1.875 t-0.36133 2.2412 q0 1.3671875 0.400390625 2.436523438 t1.0596 1.7773 t1.5723 1.1865 t2.0752 0.47852 z M39.316109374999996 13.086375 q-0.654296875 -1.11328125 -1.733398438 -1.748046875 t-2.4072 -0.63477 q-1.1328125 0 -2.0703125 0.478515625 t-1.6064 1.2842 t-1.04 1.8652 t-0.37109 2.2314 q0 1.38671875 0.41015625 2.456054688 t1.0693 1.7773 t1.5674 1.1816 t2.041 0.47363 q1.54296875 0 2.685546875 -0.7470703125 t1.9531 -2.4561 l1.7188 0.81055 q-0.37109375 1.0546875 -1.259765625 2.036132813 t-2.1924 1.582 t-2.8857 0.60059 q-1.513671875 0 -2.783203125 -0.5712890625 t-2.2607 -1.626 t-1.5137 -2.5 t-0.52246 -3.0176 q0 -1.58203125 0.5224609375 -2.98828125 t1.4648 -2.4463 t2.2461 -1.6406 t2.8271 -0.60059 q1.357421875 0 2.34375 0.3857421875 t1.6748 0.91797 t1.1865 1.1572 l1.0352 0 l0 1.7383 l-2.0996 0 z M43.5449375 9.179375 l4.7266 0 l0 1.6895 l-1.4063 0 l0 11.436 l1.4063 0 l0 1.6797 l-4.7266 0 l0 -1.6797 l1.4063 0 l0 -11.436 l-1.4063 0 l0 -1.6895 z M59.82396875 22.304675 l1.2305 0 l-1.1719 -3.3594 l-5.6934 0 l-1.1426 3.3594 l1.5234 0 l0 1.6797 l-4.8047 0 l0 -1.6797 l1.2891 0 l4.6094 -13.125 l2.8809 0 l4.5996 13.125 l1.4844 0 l0 1.6797 l-4.8047 0 l0 -1.6797 z M54.74606875 17.324175 l4.5703 0 l-2.3047 -6.6211 z M66.1230625 9.179375 l4.8047 0 l0 1.6895 l-1.4844 0 l0 11.436 l5.1074 0 q0.15625 0 0.3125 -0.0732421875 t0.2832 -0.19043 t0.20508 -0.26855 t0.078125 -0.30762 l0 -1.8652 l1.8555 0 l0 4.3848 l-11.162 0 l0 -1.6797 l1.4063 0 l0 -11.436 l-1.4063 0 l0 -1.6895 z"/></g></svg>